<svg width="80" height="80" viewBox="0 0 80 80" fill="none" xmlns="http://www.w3.org/2000/svg">
  <!-- Outer circle -->
  <circle cx="40" cy="40" r="35" stroke="#FFFFFF" stroke-width="3" fill="none"/>
  
  <!-- Clean gear/cog manufacturing symbol -->
  <g stroke="#FFFFFF" stroke-width="2.5" stroke-linecap="round" stroke-linejoin="round">
    <!-- Large gear -->
    <circle cx="40" cy="40" r="12" fill="none"/>
    <circle cx="40" cy="40" r="5" fill="none"/>
    
    <!-- Gear teeth (8 teeth) -->
    <rect x="38" y="23" width="4" height="5" fill="#FFFFFF"/>
    <rect x="38" y="52" width="4" height="5" fill="#FFFFFF"/>
    <rect x="23" y="38" width="5" height="4" fill="#FFFFFF"/>
    <rect x="52" y="38" width="5" height="4" fill="#FFFFFF"/>
    
    <!-- Diagonal teeth -->
    <rect x="30" y="28" width="3" height="4" fill="#FFFFFF" transform="rotate(-45 31.5 30)"/>
    <rect x="47" y="28" width="3" height="4" fill="#FFFFFF" transform="rotate(45 48.5 30)"/>
    <rect x="30" y="48" width="3" height="4" fill="#FFFFFF" transform="rotate(45 31.5 50)"/>
    <rect x="47" y="48" width="3" height="4" fill="#FFFFFF" transform="rotate(-45 48.5 50)"/>
    
    <!-- Pipes crossing through gear -->
    <g stroke-width="2">
      <!-- Horizontal pipe -->
      <line x1="20" y1="40" x2="28" y2="40"/>
      <line x1="52" y1="40" x2="60" y2="40"/>
      
      <!-- Vertical pipe -->
      <line x1="40" y1="20" x2="40" y2="28"/>
      <line x1="40" y1="52" x2="40" y2="60"/>
    </g>
  </g>
</svg>
